PathFileType	4	(X/Y/Z)	/Users/itak/Documents/Research/Walk-IL/dataset/trc/00202_00008.trc
DataRate	CameraRate	NumFrames	NumMarkers	Units	OrigDataRate	OrigDataStartFrame	OrigNumFrames
100.000000	100.000000	4	53	mm	100.000000	62	498
Frame#	Time	RPSI			LPSI			L3			STRN			T10			C7			CLAV			RBAK			LBAK			LSHO			LUPA			LAEL			LAOL			LWTS			LWPS			LFRA			LIFD			LHPS			LHTS			RSHO			RUPA			RAEL			RAOL			RWTS			RWPS			RFRA			RIFD			RHTS			RHPS			RBHD			LFHD			RFHD			LBHD			LHIP			RHIP			RASI			LASI			LKNE			LTHI			LANK			LTIP			LTOE			LMT1			LMT5			LHEE			RKNE			RTHI			RANK			RTIP			RTOE			RMT1			RMT5			RHEE			
		X1	Y1	Z1	X2	Y2	Z2	X3	Y3	Z3	X4	Y4	Z4	X5	Y5	Z5	X6	Y6	Z6	X7	Y7	Z7	X8	Y8	Z8	X9	Y9	Z9	X10	Y10	Z10	X11	Y11	Z11	X12	Y12	Z12	X13	Y13	Z13	X14	Y14	Z14	X15	Y15	Z15	X16	Y16	Z16	X17	Y17	Z17	X18	Y18	Z18	X19	Y19	Z19	X20	Y20	Z20	X21	Y21	Z21	X22	Y22	Z22	X23	Y23	Z23	X24	Y24	Z24	X25	Y25	Z25	X26	Y26	Z26	X27	Y27	Z27	X28	Y28	Z28	X29	Y29	Z29	X30	Y30	Z30	X31	Y31	Z31	X32	Y32	Z32	X33	Y33	Z33	X34	Y34	Z34	X35	Y35	Z35	X36	Y36	Z36	X37	Y37	Z37	X38	Y38	Z38	X39	Y39	Z39	X40	Y40	Z40	X41	Y41	Z41	X42	Y42	Z42	X43	Y43	Z43	X44	Y44	Z44	X45	Y45	Z45	X46	Y46	Z46	X47	Y47	Z47	X48	Y48	Z48	X49	Y49	Z49	X50	Y50	Z50	X51	Y51	Z51	X52	Y52	Z52	X53	Y53	Z53	

63	0.62	-1699.576171875	1061.809204101562	-564.7044677734375	-1697.560424804688	1060.148071289062	-690.29052734375	-1695.819946289062	1096.866333007812	-625.1878051757812	-1434.03466796875	1298.317138671875	-633.0219116210938	-1729.069702148438	1253.380493164062	-632.5426635742188	-1656.453857421875	1521.333862304688	-646.6337280273438	-1458.301391601562	1412.400512695312	-643.7147827148438	-1727.626831054688	1349.37255859375	-534.6189575195312	-1664.806884765625	1496.053100585938	-748.4037475585938	-1587.25927734375	1479.784057617188	-826.8927001953125	-1618.463745117188	1346.698974609375	-898.7896728515625	-1597.826538085938	1125.186157226562	-910.7415771484375	-1652.534423828125	1112.774536132812	-842.73974609375	-1487.59375	897.0098266601562	-856.9354248046875	-1561.365844726562	872.96044921875	-906.4080200195312	-1579.759887695312	1014.438293457031	-918.8141479492188	-1473.721313476562	716.9366455078125	-823.5090942382812	-1538.316528320312	804.4541625976562	-897.5226440429688	-1470.748046875	818.72900390625	-872.469482421875	-1591.302490234375	1499.659057617188	-465.6951293945312	-1610.602661132812	1433.922729492188	-395.0324096679688	-1621.569702148438	1144.253540039062	-338.3556213378906	-1630.629028320312	1135.600463867188	-436.3023681640625	-1486.282958984375	915.8261108398438	-358.2301330566406	-1559.205810546875	900.6719360351562	-307.2889404296875	-1597.811767578125	1072.62060546875	-319.5456848144531	-1474.105712890625	726.3485107421875	-378.0349426269531	-1460.71826171875	822.4883422851562	-349.4734802246094	-1531.539672851562	818.0651245117188	-307.605224609375	-1589.769165039062	1670.681762695312	-556.1784057617188	-1474.294189453125	1740.087280273438	-729.0137939453125	-1434.855712890625	1737.806518554688	-605.4285888671875	-1637.035766601562	1679.65283203125	-684.4359130859375	-1593.578369140625	993.8522338867188	-807.1687622070312	-1550.642456054688	1016.363891601562	-435.38671875	-1461.93603515625	1041.61376953125	-494.1390991210938	-1468.04931640625	1026.280029296875	-751.1824340820312	-1583.568237304688	495.2704162597656	-753.5719604492188	-1576.623779296875	635.8749389648438	-787.2637939453125	-1679.1943359375	40.46220016479492	-737.1575927734375	-1625.849609375	271.6716918945312	-757.228759765625	-1457.917602539062	39.13875579833984	-718.4281005859375	-1507.63037109375	40.11321258544922	-669.2825927734375	-1572.169311523438	32.75350952148438	-780.5357055664062	-1727.209838867188	39.79389190673828	-666.5296020507812	-1566.01806640625	517.2349243164062	-445.2220764160156	-1508.738525390625	780.8397827148438	-423.4527587890625	-1663.670043945312	36.6256103515625	-428.3424377441406	-1561.353637695312	397.0837707519531	-459.4302368164062	-1442.57177734375	41.2110710144043	-476.0381469726562	-1501.357421875	38.47086334228516	-517.7835083007812	-1549.8505859375	34.13092422485352	-399.9135131835938	-1718.399536132812	31.66913604736328	-492.2681579589844	
64	0.63	-1698.600341796875	1061.907348632812	-565.9951782226562	-1696.526611328125	1060.170654296875	-691.5458374023438	-1694.785400390625	1096.91162109375	-626.3910522460938	-1432.93701171875	1298.054443359375	-634.2521362304688	-1728.020263671875	1253.39453125	-633.6806640625	-1655.184204101562	1521.273803710938	-647.7647094726562	-1457.164916992188	1412.145263671875	-644.9348754882812	-1726.431030273438	1349.352905273438	-535.7260131835938	-1663.587158203125	1495.9970703125	-749.52783203125	-1586.078857421875	1479.641235351562	-828.0466918945312	-1617.413818359375	1346.578857421875	-899.9146118164062	-1597.00048828125	1125.037353515625	-911.8555908203125	-1651.71826171875	1112.690185546875	-843.8455810546875	-1487.042114257812	896.7363891601562	-858.0731201171875	-1560.884765625	872.7789306640625	-907.5433349609375	-1579.091918945312	1014.271179199219	-919.9314575195312	-1473.407470703125	716.6425170898438	-824.6354370117188	-1537.913208007812	804.232421875	-898.6677856445312	-1470.302490234375	818.4182739257812	-873.5997314453125	-1589.986938476562	1499.540405273438	-466.8681945800781	-1609.298828125	1433.802978515625	-396.2036437988281	-1620.354370117188	1144.19873046875	-339.4804382324219	-1629.346923828125	1135.484008789062	-437.3976745605469	-1485.380004882812	915.5719604492188	-358.990478515625	-1558.342529296875	900.6119384765625	-308.0937805175781	-1596.669677734375	1072.585083007812	-320.5830993652344	-1473.520385742188	726.0578002929688	-378.5438842773438	-1459.969848632812	822.1912231445312	-350.1029663085938	-1530.846801757812	817.9746704101562	-308.2849426269531	-1588.314697265625	1670.58837890625	-557.3655395507812	-1472.61279296875	1739.901123046875	-730.0808715820312	-1433.286010742188	1737.48291015625	-606.4763793945312	-1635.46240234375	1679.672973632812	-685.62744140625	-1592.62548828125	993.7462768554688	-808.5616455078125	-1550.127075195312	1016.372497558594	-436.38671875	-1460.974853515625	1041.434204101562	-495.3343200683594	-1467.112182617188	1026.008544921875	-752.3961791992188	-1583.834228515625	495.1116638183594	-754.2389526367188	-1576.536865234375	635.70556640625	-788.0858764648438	-1679.18310546875	40.44919967651367	-737.1781005859375	-1626.010009765625	271.6600341796875	-757.6156005859375	-1457.830200195312	39.02756118774414	-718.4046630859375	-1507.595581054688	40.11968994140625	-669.318115234375	-1572.172119140625	32.66092681884766	-780.6219482421875	-1727.146362304688	39.87046813964844	-666.571533203125	-1566.17041015625	517.2470703125	-445.8585510253906	-1508.10693359375	780.9837036132812	-424.4066467285156	-1663.578002929688	36.73473358154297	-428.4498596191406	-1561.447021484375	397.1581115722656	-459.9703979492188	-1442.513061523438	41.15093231201172	-476.0497131347656	-1501.296997070312	38.39836883544922	-517.7984008789062	-1549.783813476562	34.24271011352539	-400.0108337402344	-1718.370239257812	31.80751037597656	-492.4107055664062	
65	0.64	-1697.629150390625	1062.026977539062	-567.308349609375	-1695.480224609375	1060.219604492188	-692.8146362304688	-1693.754272460938	1096.978881835938	-627.6105346679688	-1431.82275390625	1297.808349609375	-635.4835205078125	-1726.9462890625	1253.421997070312	-634.8322143554688	-1653.9072265625	1521.227783203125	-648.9140014648438	-1456.020141601562	1411.897216796875	-646.1612548828125	-1725.22265625	1349.349975585938	-536.8472900390625	-1662.356323242188	1495.954833984375	-750.6697387695312	-1584.883422851562	1479.513793945312	-829.2118530273438	-1616.346801757812	1346.471069335938	-901.0552978515625	-1596.154052734375	1124.91064453125	-912.9879760742188	-1650.878662109375	1112.624267578125	-844.968017578125	-1486.500610351562	896.4563598632812	-859.2610473632812	-1560.409423828125	872.6182861328125	-908.7289428710938	-1578.406616210938	1014.128540039062	-921.0792236328125	-1473.1005859375	716.3352661132812	-825.823974609375	-1537.5244140625	804.025634765625	-899.8751220703125	-1469.874633789062	818.109619140625	-874.7938232421875	-1588.675415039062	1499.441772460938	-468.0597534179688	-1607.994873046875	1433.7109375	-397.3883361816406	-1619.135498046875	1144.16015625	-340.623779296875	-1628.05078125	1135.3876953125	-438.5106201171875	-1484.416259765625	915.3670043945312	-359.7732543945312	-1557.418212890625	900.5770263671875	-308.9305419921875	-1595.511596679688	1072.5673828125	-321.64111328125	-1472.819580078125	725.8251342773438	-379.09423828125	-1459.10791015625	821.9583740234375	-350.7589721679688	-1530.06494140625	817.911865234375	-309.0039367675781	-1586.847290039062	1670.50830078125	-558.5661010742188	-1470.911376953125	1739.724853515625	-731.16015625	-1431.693969726562	1737.16748046875	-607.5400390625	-1633.875732421875	1679.718505859375	-686.8298950195312	-1591.662963867188	993.6460571289062	-809.9421997070312	-1549.572509765625	1016.384338378906	-437.4533386230469	-1460.024047851562	1041.261840820312	-496.5177001953125	-1466.159790039062	1025.738403320312	-753.5963745117188	-1584.086669921875	494.9581604003906	-754.9051513671875	-1576.454223632812	635.5445556640625	-788.9059448242188	-1679.174926757812	40.43694305419922	-737.2014770507812	-1626.170288085938	271.6531982421875	-758.0037841796875	-1457.746704101562	38.92170333862305	-718.3817749023438	-1507.56298828125	40.12755584716797	-669.353271484375	-1572.181762695312	32.56388854980469	-780.708251953125	-1727.084228515625	39.94364547729492	-666.6121215820312	-1566.302368164062	517.2554931640625	-446.5291442871094	-1507.490600585938	781.132568359375	-425.3629455566406	-1663.495361328125	36.86008834838867	-428.5694580078125	-1561.517822265625	397.2218933105469	-460.5373840332031	-1442.454467773438	41.09733963012695	-476.0618286132812	-1501.233520507812	38.32419586181641	-517.8175048828125	-1549.7119140625	34.36698532104492	-400.1146850585938	-1718.340698242188	31.95123100280762	-492.5689697265625	
66	0.65	-1696.669311523438	1062.166381835938	-568.6336669921875	-1694.427490234375	1060.291015625	-694.0908813476562	-1692.732299804688	1097.06591796875	-628.8418579101562	-1430.697631835938	1297.575439453125	-636.713134765625	-1725.851318359375	1253.464965820312	-635.994873046875	-1652.623291015625	1521.20068359375	-650.0814819335938	-1454.86474609375	1411.654418945312	-647.3901977539062	-1724.004150390625	1349.367919921875	-537.9815063476562	-1661.112915039062	1495.92578125	-751.828369140625	-1583.673217773438	1479.401000976562	-830.3880004882812	-1615.265502929688	1346.375854492188	-902.2111206054688	-1595.292236328125	1124.805908203125	-914.138427734375	-1650.016845703125	1112.575805664062	-846.1049194335938	-1485.969604492188	896.1707153320312	-860.5021362304688	-1559.938842773438	872.4783325195312	-909.9631958007812	-1577.70654296875	1014.009887695312	-922.2573852539062	-1472.790771484375	716.0123291015625	-827.0807495117188	-1537.14794921875	803.8352661132812	-901.1427612304688	-1469.461181640625	817.8030395507812	-876.0535888671875	-1587.364379882812	1499.36328125	-469.2665405273438	-1606.689208984375	1433.64794921875	-398.5839233398438	-1617.91748046875	1144.137817382812	-341.77978515625	-1626.752563476562	1135.312255859375	-439.6373596191406	-1483.392822265625	915.2142333984375	-360.582763671875	-1556.43212890625	900.56640625	-309.8024597167969	-1594.340576171875	1072.566650390625	-322.7159118652344	-1471.99951171875	725.65185546875	-379.6958312988281	-1458.1337890625	821.7927856445312	-351.4508666992188	-1529.188232421875	817.8756103515625	-309.7678833007812	-1585.368896484375	1670.4384765625	-559.7764892578125	-1469.195434570312	1739.558471679688	-732.249267578125	-1430.083618164062	1736.863525390625	-608.6168823242188	-1632.279541015625	1679.783935546875	-688.0410766601562	-1590.697509765625	993.5490112304688	-811.3013305664062	-1548.987670898438	1016.39404296875	-438.5851440429688	-1459.091552734375	1041.094848632812	-497.6823120117188	-1465.196533203125	1025.4697265625	-754.7755737304688	-1584.318725585938	494.808349609375	-755.57080078125	-1576.372680664062	635.3914184570312	-789.7251586914062	-1679.171508789062	40.42367935180664	-737.2303466796875	-1626.326049804688	271.6515197753906	-758.3971557617188	-1457.671875	38.82484436035156	-718.3605346679688	-1507.534423828125	40.13788986206055	-669.3883056640625	-1572.197387695312	32.46360015869141	-780.7950439453125	-1727.027587890625	40.01350021362305	-666.6538696289062	-1566.402099609375	517.2621459960938	-447.2305603027344	-1506.903442382812	781.2659912109375	-426.3139953613281	-1663.425170898438	37.00254058837891	-428.7014770507812	-1561.562866210938	397.2762756347656	-461.1290283203125	-1442.395385742188	41.0494384765625	-476.0752563476562	-1501.16748046875	38.24875259399414	-517.8417358398438	-1549.638305664062	34.50150299072266	-400.22412109375	-1718.310302734375	32.09674835205078	-492.7419738769531	
